HIERARCHY
ROOT Hips
{
	OFFSET -3.958830 18.904000 13.208200
	CHANNELS 6 Xposition Yposition Zposition Zrotation Yrotation Xrotation 
	JOINT LHipJoint
	{
		OFFSET 0.000000 0.000000 0.000000
		CHANNELS 3 Zrotation Yrotation Xrotation
		JOINT LeftUpLeg
		{
			OFFSET 1.800000 -1.400000 0.085000
			CHANNELS 3 Zrotation Yrotation Xrotation
			JOINT LeftLeg
			{
				OFFSET 2.215000 -6.000000 0.000000
				CHANNELS 3 Zrotation Yrotation Xrotation
				JOINT LeftFoot
				{
					OFFSET 2.500000 -6.900000 0.000000
					CHANNELS 3 Zrotation Yrotation Xrotation
					JOINT LeftToeBase
					{
						OFFSET 0.200000 -0.500000 1.950000
						CHANNELS 3 Zrotation Yrotation Xrotation
						End Site
						{
							OFFSET 0.000000 0.000000 0.000000
						}
					}
				}
			}
		}
	}
	JOINT RHipJoint
	{
		OFFSET 0.000000 0.000000 0.000000
		CHANNELS 3 Zrotation Yrotation Xrotation
		JOINT RightUpLeg
		{
			OFFSET -1.800000 -1.400000 0.085000
			CHANNELS 3 Zrotation Yrotation Xrotation
			JOINT RightLeg
			{
				OFFSET -2.215000 -6.000000 0.000000
				CHANNELS 3 Zrotation Yrotation Xrotation
				JOINT RightFoot
				{
					OFFSET -2.500000 -6.900000 0.000000
					CHANNELS 3 Zrotation Yrotation Xrotation
					JOINT RightToeBase
					{
						OFFSET -0.200000 -0.500000 1.950000
						CHANNELS 3 Zrotation Yrotation Xrotation
						End Site
						{
							OFFSET 0.000000 0.000000 0.000000
						}
					}
				}
			}
		}
	}
	JOINT LowerBack
	{
		OFFSET 0.000000 0.000000 0.000000
		CHANNELS 3 Zrotation Yrotation Xrotation
		JOINT Spine
		{
			OFFSET -0.087000 1.940000 -0.288900
			CHANNELS 3 Zrotation Yrotation Xrotation
			JOINT Spine1
			{
				OFFSET 0.000000 1.950000 0.060000
				CHANNELS 3 Zrotation Yrotation Xrotation
				JOINT Neck
				{
					OFFSET 0.000000 0.000000 0.000000
					CHANNELS 3 Zrotation Yrotation Xrotation
					JOINT Neck1
					{
						OFFSET 0.000000 1.600000 0.340000
						CHANNELS 3 Zrotation Yrotation Xrotation
						JOINT Head
						{
							OFFSET 0.000000 1.667000 -0.240000
							CHANNELS 3 Zrotation Yrotation Xrotation
							End Site
							{
								OFFSET 0.000000 0.000000 0.000000
							}
						}
					}
				}
				JOINT LeftShoulder
				{
					OFFSET 0.000000 0.000000 0.000000
					CHANNELS 3 Zrotation Yrotation Xrotation
					JOINT LeftArm
					{
						OFFSET 2.700000 1.550000 -0.730000
						CHANNELS 3 Zrotation Yrotation Xrotation
						JOINT LeftForeArm
						{
							OFFSET 5.450000 0.000000 0.000000
							CHANNELS 3 Zrotation Yrotation Xrotation
							JOINT LeftHand
							{
								OFFSET 3.450000 0.000000 0.000000
								CHANNELS 3 Zrotation Yrotation Xrotation
								JOINT LeftHandIndex1
								{
									OFFSET 0.750000 0.000000 0.000000
									CHANNELS 3 Zrotation Yrotation Xrotation
									End Site
									{
										OFFSET 0.000000 0.000000 0.000000
									}
								}
							}
						}
					}
				}
				JOINT RightShoulder
				{
					OFFSET 0.000000 0.000000 0.000000
					CHANNELS 3 Zrotation Yrotation Xrotation
					JOINT RightArm
					{
						OFFSET -2.700000 1.550000 -0.730000
						CHANNELS 3 Zrotation Yrotation Xrotation
						JOINT RightForeArm
						{
							OFFSET -5.450000 0.000000 0.000000
							CHANNELS 3 Zrotation Yrotation Xrotation
							JOINT RightHand
							{
								OFFSET -3.450000 0.000000 0.000000
								CHANNELS 3 Zrotation Yrotation Xrotation
								JOINT RightHandIndex1
								{
									OFFSET -0.750000 0.000000 0.000000
									CHANNELS 3 Zrotation Yrotation Xrotation
									End Site
									{
										OFFSET 0.000000 0.000000 0.000000
									}
								}
							}
						}
					}
				}
			}
		}
	}
}
MOTION
Frames: 13
Frame Time: 0.016667
-0.457250 17.014140 -2.750630 -3.091912 5.712786 3.451994 -15.540172 12.443525 4.735749 18.433073 -5.549920 -34.746860 -10.326268 15.282069 44.396551 -0.065504 9.924895 1.174180 0.386630 -0.126070 0.228500 18.057509 -10.132470 2.156563 -21.373221 1.929638 -28.310151 3.074175 -8.147104 33.088891 -0.227760 -5.151536 2.738236 0.081880 0.520360 0.149300 -2.829456 -2.471014 -8.399959 2.246875 0.490128 18.365866 0.340670 1.499608 2.096762 1.002518 -2.638813 -8.785365 -6.503883 -0.950065 30.235294 -1.111000 -3.024530 -10.165520 -24.686407 -9.715450 3.214271 -32.830782 2.836188 -6.365687 -43.022753 -24.880976 4.954222 -3.759790 2.969058 0.744970 0.255720 -0.251890 0.297530 23.073143 13.065893 6.060449 34.112615 -0.827609 -8.291265 48.212113 27.473949 6.629477 1.797682 -1.567720 -0.490720 0.453870 0.070010 -0.313250 
-0.498900 16.981160 -2.745640 -2.976052 5.620422 3.249776 -15.567787 12.473954 4.742769 18.802921 -5.297014 -34.571177 -10.504503 15.527506 44.422512 -0.009312 9.962355 1.160504 0.417470 -0.091670 0.246070 18.025234 -10.123963 2.147885 -21.693737 1.999253 -28.031241 3.161883 -8.215989 33.470145 -0.256012 -5.222255 2.708660 0.082820 0.494840 0.162450 -2.742541 -2.523812 -8.428201 1.478100 0.918743 18.783398 0.947446 1.809590 1.729107 0.953904 -2.537929 -8.864966 -6.427818 -0.993939 30.716641 -0.757570 -3.112580 -9.992800 -25.101917 -9.863240 3.346401 -32.555802 3.256866 -6.458417 -43.725056 -25.104354 5.170348 -3.722518 3.018096 0.735000 0.237920 -0.228870 0.314590 23.674080 13.386362 6.096423 33.259834 -0.732815 -8.028704 48.114117 26.789176 6.415726 1.815152 -1.596862 -0.455350 0.423450 0.035480 -0.299650 
-0.575520 16.944050 -2.736350 -2.819194 5.924713 2.732380 -15.613212 12.525013 4.758012 19.217139 -5.106095 -34.767378 -9.719219 15.610987 45.474931 0.019144 10.077633 1.101791 0.415670 -0.098240 0.259440 17.973590 -10.103666 2.135279 -22.340742 2.040792 -27.212522 3.962734 -8.666727 34.029656 -0.292788 -5.397903 2.630790 0.069470 0.460320 0.167110 -2.609854 -2.634235 -8.484048 0.294190 1.442490 19.787729 1.742261 2.195327 1.046525 0.979904 -2.250307 -9.000724 -6.108477 -0.974492 31.745803 -0.676640 -2.918880 -10.186530 -25.596413 -10.043571 3.479859 -32.312819 3.760781 -6.554156 -44.239663 -25.385236 5.361499 -3.699995 3.033721 0.751240 0.214650 -0.207580 0.297340 24.243290 13.710337 6.144020 32.532338 -0.557092 -7.840693 47.950999 26.383266 6.346907 1.825894 -1.588797 -0.443630 0.400310 0.036510 -0.309840 
-0.662270 16.913700 -2.703390 -2.994909 6.130742 2.123540 -15.620202 12.520813 4.706962 19.929456 -4.537847 -34.589316 -9.006154 15.754197 46.194569 0.061828 10.146927 1.060170 0.440610 -0.057650 0.260440 17.970376 -10.071799 2.203550 -22.689154 2.408501 -26.934497 5.131125 -9.490848 35.882861 -0.376172 -5.801874 2.490326 0.073990 0.429650 0.170520 -2.598880 -2.588621 -8.538042 0.074481 1.822482 20.485840 1.906081 2.617020 0.528368 0.954764 -2.147133 -9.018410 -5.986501 -1.107410 32.333011 -0.019220 -3.217100 -10.566940 -25.921325 -9.919197 3.432707 -32.554690 3.836308 -6.544082 -44.061863 -25.332959 5.366566 -3.668156 3.061053 0.746970 0.191720 -0.185910 0.303950 24.634899 13.797758 6.164483 32.604914 -0.432757 -7.872260 48.326006 27.250557 6.804694 1.831366 -1.611940 -0.409420 0.376270 0.016700 -0.297570 
-0.757360 16.889550 -2.660900 -3.113979 6.772641 1.730293 -15.622770 12.453314 4.606699 20.328243 -4.094456 -34.691399 -7.552760 15.540007 47.183449 0.051104 10.176240 1.045655 0.436830 -0.049560 0.287790 17.986169 -10.042912 2.308700 -23.009161 2.740826 -26.900019 6.664490 -10.619238 37.802050 -0.472703 -6.279158 2.329831 0.077210 0.414690 0.158810 -2.620071 -2.400109 -8.553898 -0.096740 2.157996 20.198299 1.663369 2.914126 0.762507 1.197412 -1.043971 -8.930539 -4.043028 -1.718350 33.029085 -0.921840 -2.713650 -10.893900 -25.650513 -9.955977 3.469647 -33.161550 3.499505 -6.512114 -42.771108 -25.308180 5.187498 -3.679877 3.000060 0.757730 0.193400 -0.167180 0.291250 23.837271 13.236672 5.866915 34.866419 0.494095 -7.999691 46.802670 28.046937 6.810397 1.843919 -1.568086 -0.419400 0.393940 0.008850 -0.311680 
-0.853500 16.889720 -2.610080 -3.249429 7.494250 0.918705 -15.605844 12.521085 4.369983 20.167876 -3.601321 -33.862069 -5.522858 14.661368 47.386818 -0.007295 9.944046 1.115322 0.446230 -0.042760 0.309710 17.987367 -10.084495 2.448024 -23.193359 3.086926 -26.505572 8.372484 -11.829330 39.524745 -0.588679 -6.769955 2.175462 0.075300 0.396230 0.161470 -2.651786 -2.253080 -8.530721 -0.168236 2.372426 19.966519 1.456900 3.104273 1.028696 1.429559 0.001830 -8.883137 -2.306707 -2.062846 34.551081 -1.407110 -2.273530 -10.859650 -25.526973 -9.941628 3.549380 -34.281904 3.273194 -6.618815 -40.437698 -25.632078 4.910516 -3.679470 2.957516 0.778730 0.191070 -0.146850 0.291390 23.247840 12.618165 5.569251 37.608761 1.432636 -8.229300 44.387703 29.211415 6.772215 1.840935 -1.531868 -0.419340 0.395110 -0.000990 -0.327290 
-0.949950 16.893370 -2.548750 -3.281087 7.964823 0.372988 -15.585563 12.557643 4.112602 19.907442 -3.041343 -33.056164 -3.600212 13.853068 47.409669 -0.050879 9.721057 1.184741 0.428140 -0.043350 0.292510 18.006115 -10.140550 2.562941 -23.139039 3.422812 -26.447473 9.402557 -12.756173 41.214124 -0.665678 -7.207906 2.038893 0.078640 0.411490 0.160230 -2.706670 -2.033862 -8.436568 -0.261210 2.644109 18.707058 1.357364 3.264839 1.747054 1.487328 0.882909 -8.524261 -0.692828 -2.421758 35.184994 -1.873270 -2.023930 -9.818520 -25.300370 -9.372415 3.442057 -35.293236 2.836853 -6.577006 -38.312942 -26.454066 4.924226 -3.718559 2.936722 0.746520 0.220420 -0.162430 0.283940 22.931002 11.464277 5.005867 40.665726 2.574813 -8.310985 41.305930 30.842098 6.712930 1.836191 -1.513475 -0.417310 0.395050 0.009920 -0.322210 
-1.047610 16.904340 -2.491000 -3.450302 8.610997 -0.302012 -15.559614 12.655841 3.843966 19.559500 -2.549506 -32.137387 -1.420128 12.718677 47.075954 -0.111444 9.396364 1.289676 0.430920 -0.040730 0.303320 18.017318 -10.255539 2.624776 -22.582472 3.670442 -26.048593 9.852232 -13.329817 42.543506 -0.730335 -7.506834 1.947217 0.082920 0.410260 0.170610 -2.766616 -1.843172 -8.304698 -0.143305 2.745661 17.474086 1.393035 3.287605 2.507429 1.560819 1.599185 -8.153704 0.602704 -2.962682 35.851959 -2.457690 -2.002480 -8.984030 -24.899204 -8.595208 3.268131 -36.835893 2.167956 -6.554367 -35.723507 -27.483331 4.865379 -3.746622 2.921426 0.725000 0.238860 -0.166650 0.279730 22.438835 10.180906 4.443585 43.623496 3.725815 -8.368358 38.638727 32.838838 6.776019 1.832426 -1.510605 -0.407770 0.383280 0.006290 -0.324310 
-1.152350 16.920230 -2.426250 -3.102802 9.338925 -1.108453 -15.552749 12.822309 3.569529 18.864538 -2.257590 -30.925522 0.554647 11.529681 46.451810 -0.200210 9.037293 1.423848 0.452040 -0.031130 0.322040 17.998863 -10.389658 2.625761 -22.480684 3.587095 -25.004566 10.259917 -13.789160 43.181658 -0.788225 -7.709575 1.888456 0.099920 0.416110 0.161220 -2.758416 -1.795212 -8.122517 -0.945577 2.851420 16.265662 1.668041 3.209516 3.347379 1.472143 1.971016 -7.788958 1.249925 -2.976586 36.614850 -2.282530 -1.916470 -8.772600 -24.156148 -7.606309 3.017208 -38.195279 1.330044 -6.473603 -34.014975 -28.956715 5.054021 -3.741061 2.899071 0.745080 0.237090 -0.168240 0.296900 22.013029 8.874594 3.958365 46.596658 4.712995 -8.505891 36.558717 35.359561 7.017602 1.815022 -1.508004 -0.429310 0.401590 -0.009140 -0.334470 
-1.257240 16.925870 -2.355020 -3.190172 9.868517 -1.859827 -15.548409 12.893806 3.365328 19.177596 -1.667512 -29.934365 1.628341 11.022912 45.831997 -0.214716 8.855919 1.491187 0.463260 -0.013090 0.319110 18.002681 -10.463914 2.616288 -22.023464 3.713045 -24.038088 10.729251 -14.350188 44.176858 -0.860986 -7.985461 1.799150 0.109660 0.429630 0.180900 -2.773777 -1.695678 -7.964869 -1.195721 2.900527 14.780235 2.020365 3.133604 4.021716 1.415993 2.265319 -7.265734 1.821538 -3.073280 36.928679 -2.471600 -1.875900 -7.903960 -23.419557 -6.070218 2.514659 -39.781799 0.245143 -5.903834 -33.053577 -28.307541 4.876910 -3.768357 2.909906 0.716430 0.255300 -0.170330 0.312850 21.521854 7.063290 3.364839 49.034027 5.398848 -8.412590 36.158053 37.937343 7.679286 1.814002 -1.548258 -0.412280 0.388460 -0.021010 -0.317610 
-1.356560 16.920720 -2.280690 -3.389810 9.861279 -2.833075 -15.528496 12.992741 3.162376 19.834278 -0.895278 -28.529703 2.288437 10.776918 45.050157 -0.230491 8.700181 1.531434 0.494470 0.031160 0.321350 18.016727 -10.551164 2.594927 -21.263889 4.008040 -23.092519 10.614461 -14.592078 45.449536 -0.929766 -8.208434 1.736650 0.132100 0.422290 0.190570 -2.824428 -1.608880 -7.821584 -0.976812 2.870427 13.568456 2.077479 3.061662 4.749677 1.328353 2.128111 -6.813502 1.619275 -2.647883 37.385721 -2.192370 -1.730640 -7.789900 -22.773817 -4.718290 2.123885 -41.295623 -0.447594 -5.531979 -32.344029 -27.593183 4.646213 -3.772252 2.927046 0.698900 0.257080 -0.166620 0.325430 21.121011 5.723629 2.814167 50.987236 6.383303 -7.959866 36.050321 39.199807 8.111476 1.813244 -1.578788 -0.389100 0.372460 -0.037390 -0.306610 
-1.453720 16.918890 -2.208460 -3.507506 9.960088 -4.120622 -15.511916 13.148299 2.944423 20.517051 -0.168000 -26.609950 2.759827 10.495343 43.893304 -0.296291 8.512347 1.577219 0.525810 0.052760 0.349720 18.010638 -10.633924 2.587024 -20.833126 4.224599 -21.553527 11.166587 -15.012588 46.021759 -1.003163 -8.392206 1.670425 0.153400 0.395660 0.190570 -2.847546 -1.617497 -7.705454 -0.678133 2.807235 12.901469 2.129261 3.017387 5.462409 1.303172 1.804338 -6.442843 0.962213 -2.204701 38.531004 -2.212040 -1.582900 -8.371730 -22.853151 -3.736600 1.824577 -42.421992 -0.650283 -5.517405 -31.495102 -27.896900 4.542606 -3.754235 2.920560 0.729660 0.235760 -0.153320 0.320400 21.309385 4.927527 2.415377 52.092703 7.260606 -7.539761 36.276635 40.191894 8.604256 1.805430 -1.583150 -0.394460 0.370630 -0.042130 -0.325000 
-1.550950 16.912140 -2.152160 -3.906900 10.061215 -5.433893 -15.474567 13.283198 2.749424 21.178313 0.431662 -25.063793 3.843472 9.932191 43.013649 -0.335066 8.297941 1.651595 0.565340 0.090890 0.384870 18.024701 -10.721993 2.607372 -20.138989 4.479029 -20.272665 11.563037 -15.415482 46.859950 -1.088326 -8.586341 1.618482 0.177280 0.371880 0.177700 -2.934449 -1.574009 -7.644959 0.245787 2.533993 12.732697 1.770062 2.836623 5.877913 1.343731 1.491281 -6.133239 0.380284 -1.746980 39.663825 -2.061710 -1.429600 -8.798140 -23.487915 -3.033955 1.626974 -43.228229 -0.411996 -5.782295 -30.711460 -28.658974 4.537187 -3.714979 2.908424 0.751940 0.211240 -0.134360 0.332320 21.857755 4.365546 2.046702 52.910319 8.046881 -7.062436 37.077986 40.870770 9.183101 1.813669 -1.592047 -0.397280 0.379580 -0.072540 -0.332150 
